<svg id="Layer_1" data-name="Layer 1" xmlns="http://www.w3.org/2000/svg" viewBox="0 0 554.64 9.41"><defs><style>.cls-1{fill:#567bb0;}</style></defs><title>audioPlayerReadingPlaying</title><ellipse class="cls-1" cx="4.73" cy="4.7" rx="4.73" ry="4.7"/><ellipse class="cls-1" cx="20.31" cy="4.7" rx="4.73" ry="4.7"/><ellipse class="cls-1" cx="35.9" cy="4.7" rx="4.73" ry="4.7"/><ellipse class="cls-1" cx="51.48" cy="4.7" rx="4.73" ry="4.7"/><ellipse class="cls-1" cx="67.07" cy="4.7" rx="4.73" ry="4.7"/><ellipse class="cls-1" cx="82.65" cy="4.7" rx="4.73" ry="4.7"/><ellipse class="cls-1" cx="98.23" cy="4.7" rx="4.73" ry="4.7"/><ellipse class="cls-1" cx="113.82" cy="4.7" rx="4.73" ry="4.7"/><ellipse class="cls-1" cx="129.4" cy="4.7" rx="4.73" ry="4.7"/><ellipse class="cls-1" cx="144.99" cy="4.7" rx="4.73" ry="4.7"/><ellipse class="cls-1" cx="160.57" cy="4.7" rx="4.73" ry="4.7"/><ellipse class="cls-1" cx="176.15" cy="4.7" rx="4.73" ry="4.7"/><ellipse class="cls-1" cx="191.74" cy="4.7" rx="4.73" ry="4.7"/><ellipse class="cls-1" cx="207.32" cy="4.7" rx="4.73" ry="4.7"/><ellipse class="cls-1" cx="222.91" cy="4.7" rx="4.73" ry="4.7"/><ellipse class="cls-1" cx="238.49" cy="4.7" rx="4.73" ry="4.7"/><ellipse class="cls-1" cx="254.07" cy="4.7" rx="4.73" ry="4.7"/><ellipse class="cls-1" cx="269.66" cy="4.7" rx="4.73" ry="4.7"/><ellipse class="cls-1" cx="285.24" cy="4.7" rx="4.73" ry="4.7"/><ellipse class="cls-1" cx="300.83" cy="4.7" rx="4.73" ry="4.7"/><ellipse class="cls-1" cx="316.41" cy="4.7" rx="4.73" ry="4.7"/><ellipse class="cls-1" cx="331.99" cy="4.7" rx="4.73" ry="4.7"/><ellipse class="cls-1" cx="347.58" cy="4.7" rx="4.73" ry="4.7"/><ellipse class="cls-1" cx="363.16" cy="4.7" rx="4.73" ry="4.7"/><ellipse class="cls-1" cx="378.75" cy="4.7" rx="4.73" ry="4.7"/><ellipse class="cls-1" cx="394.33" cy="4.7" rx="4.73" ry="4.7"/><ellipse class="cls-1" cx="409.91" cy="4.7" rx="4.73" ry="4.7"/><ellipse class="cls-1" cx="425.5" cy="4.7" rx="4.73" ry="4.7"/><ellipse class="cls-1" cx="441.08" cy="4.7" rx="4.73" ry="4.7"/><ellipse class="cls-1" cx="456.67" cy="4.7" rx="4.73" ry="4.7"/><ellipse class="cls-1" cx="472.25" cy="4.7" rx="4.73" ry="4.7"/><ellipse class="cls-1" cx="487.84" cy="4.7" rx="4.73" ry="4.7"/><ellipse class="cls-1" cx="503.42" cy="4.7" rx="4.73" ry="4.7"/><ellipse class="cls-1" cx="519" cy="4.7" rx="4.73" ry="4.7"/><ellipse class="cls-1" cx="534.59" cy="4.7" rx="4.73" ry="4.7"/><ellipse class="cls-1" cx="549.91" cy="4.7" rx="4.73" ry="4.7"/></svg>