<svg id="Layer_1" data-name="Layer 1" xmlns="http://www.w3.org/2000/svg" viewBox="0 0 388.5 10.91"><defs><style>.cls-1{fill:#567bb0;stroke:#567bb0;stroke-miterlimit:10;}</style></defs><title>audiPlayerCirclePlaying</title><ellipse class="cls-1" cx="5.48" cy="5.45" rx="4.98" ry="4.95"/><ellipse class="cls-1" cx="21.9" cy="5.45" rx="4.98" ry="4.95"/><ellipse class="cls-1" cx="38.31" cy="5.45" rx="4.98" ry="4.95"/><ellipse class="cls-1" cx="54.73" cy="5.45" rx="4.98" ry="4.95"/><ellipse class="cls-1" cx="71.14" cy="5.45" rx="4.98" ry="4.95"/><ellipse class="cls-1" cx="87.55" cy="5.45" rx="4.98" ry="4.95"/><ellipse class="cls-1" cx="103.97" cy="5.45" rx="4.98" ry="4.95"/><ellipse class="cls-1" cx="120.38" cy="5.45" rx="4.98" ry="4.95"/><ellipse class="cls-1" cx="136.8" cy="5.45" rx="4.98" ry="4.95"/><ellipse class="cls-1" cx="153.21" cy="5.45" rx="4.98" ry="4.95"/><ellipse class="cls-1" cx="169.63" cy="5.45" rx="4.98" ry="4.95"/><ellipse class="cls-1" cx="186.04" cy="5.45" rx="4.98" ry="4.95"/><ellipse class="cls-1" cx="202.46" cy="5.45" rx="4.98" ry="4.95"/><ellipse class="cls-1" cx="218.87" cy="5.45" rx="4.98" ry="4.95"/><ellipse class="cls-1" cx="235.29" cy="5.45" rx="4.98" ry="4.95"/><ellipse class="cls-1" cx="251.7" cy="5.45" rx="4.98" ry="4.95"/><ellipse class="cls-1" cx="268.12" cy="5.45" rx="4.98" ry="4.95"/><ellipse class="cls-1" cx="284.53" cy="5.45" rx="4.98" ry="4.95"/><ellipse class="cls-1" cx="300.95" cy="5.45" rx="4.98" ry="4.95"/><ellipse class="cls-1" cx="317.36" cy="5.45" rx="4.98" ry="4.95"/><ellipse class="cls-1" cx="333.77" cy="5.45" rx="4.98" ry="4.95"/><ellipse class="cls-1" cx="350.19" cy="5.45" rx="4.98" ry="4.95"/><ellipse class="cls-1" cx="366.6" cy="5.45" rx="4.98" ry="4.95"/><ellipse class="cls-1" cx="383.02" cy="5.45" rx="4.98" ry="4.95"/></svg>