<svg id="Layer_1" data-name="Layer 1" xmlns="http://www.w3.org/2000/svg" viewBox="0 0 555.64 10.41"><defs><style>.cls-1{fill:#f7f7f7;stroke:#567bb0;stroke-miterlimit:10;}</style></defs><title>audioPlayerReadingBack</title><ellipse class="cls-1" cx="5.23" cy="5.2" rx="4.73" ry="4.7"/><ellipse class="cls-1" cx="20.81" cy="5.2" rx="4.73" ry="4.7"/><ellipse class="cls-1" cx="36.4" cy="5.2" rx="4.73" ry="4.7"/><ellipse class="cls-1" cx="51.98" cy="5.2" rx="4.73" ry="4.7"/><ellipse class="cls-1" cx="67.57" cy="5.2" rx="4.73" ry="4.7"/><ellipse class="cls-1" cx="83.15" cy="5.2" rx="4.73" ry="4.7"/><ellipse class="cls-1" cx="98.73" cy="5.2" rx="4.73" ry="4.7"/><ellipse class="cls-1" cx="114.32" cy="5.2" rx="4.73" ry="4.7"/><ellipse class="cls-1" cx="129.9" cy="5.2" rx="4.73" ry="4.7"/><ellipse class="cls-1" cx="145.49" cy="5.2" rx="4.73" ry="4.7"/><ellipse class="cls-1" cx="161.07" cy="5.2" rx="4.73" ry="4.7"/><ellipse class="cls-1" cx="176.65" cy="5.2" rx="4.73" ry="4.7"/><ellipse class="cls-1" cx="192.24" cy="5.2" rx="4.73" ry="4.7"/><ellipse class="cls-1" cx="207.82" cy="5.2" rx="4.73" ry="4.7"/><ellipse class="cls-1" cx="223.41" cy="5.2" rx="4.73" ry="4.7"/><ellipse class="cls-1" cx="238.99" cy="5.2" rx="4.73" ry="4.7"/><ellipse class="cls-1" cx="254.57" cy="5.2" rx="4.73" ry="4.7"/><ellipse class="cls-1" cx="270.16" cy="5.2" rx="4.73" ry="4.7"/><ellipse class="cls-1" cx="285.74" cy="5.2" rx="4.73" ry="4.7"/><ellipse class="cls-1" cx="301.33" cy="5.2" rx="4.73" ry="4.7"/><ellipse class="cls-1" cx="316.91" cy="5.2" rx="4.73" ry="4.7"/><ellipse class="cls-1" cx="332.49" cy="5.2" rx="4.73" ry="4.7"/><ellipse class="cls-1" cx="348.08" cy="5.2" rx="4.73" ry="4.7"/><ellipse class="cls-1" cx="363.66" cy="5.2" rx="4.73" ry="4.7"/><ellipse class="cls-1" cx="379.25" cy="5.2" rx="4.73" ry="4.7"/><ellipse class="cls-1" cx="394.83" cy="5.2" rx="4.73" ry="4.7"/><ellipse class="cls-1" cx="410.41" cy="5.2" rx="4.73" ry="4.7"/><ellipse class="cls-1" cx="426" cy="5.2" rx="4.73" ry="4.7"/><ellipse class="cls-1" cx="441.58" cy="5.2" rx="4.73" ry="4.7"/><ellipse class="cls-1" cx="457.17" cy="5.2" rx="4.73" ry="4.7"/><ellipse class="cls-1" cx="472.75" cy="5.2" rx="4.73" ry="4.7"/><ellipse class="cls-1" cx="488.34" cy="5.2" rx="4.73" ry="4.7"/><ellipse class="cls-1" cx="503.92" cy="5.2" rx="4.73" ry="4.7"/><ellipse class="cls-1" cx="519.5" cy="5.2" rx="4.73" ry="4.7"/><ellipse class="cls-1" cx="535.09" cy="5.2" rx="4.73" ry="4.7"/><ellipse class="cls-1" cx="550.41" cy="5.2" rx="4.73" ry="4.7"/></svg>