<svg id="레이어_1" data-name="레이어 1" xmlns="http://www.w3.org/2000/svg" viewBox="0 0 358.12 5.45"><defs><style>.cls-1{fill:#fbc5b1;stroke:#333;stroke-miterlimit:10;stroke-width:0.5px;}</style></defs><title>audioPlayerCircle</title><ellipse class="cls-1" cx="2.74" cy="2.73" rx="2.49" ry="2.48"/><ellipse class="cls-1" cx="10.94" cy="2.73" rx="2.49" ry="2.48"/><ellipse class="cls-1" cx="19.14" cy="2.73" rx="2.49" ry="2.48"/><ellipse class="cls-1" cx="27.34" cy="2.73" rx="2.49" ry="2.48"/><ellipse class="cls-1" cx="35.54" cy="2.73" rx="2.49" ry="2.48"/><ellipse class="cls-1" cx="43.74" cy="2.73" rx="2.49" ry="2.48"/><ellipse class="cls-1" cx="51.94" cy="2.73" rx="2.49" ry="2.48"/><ellipse class="cls-1" cx="60.15" cy="2.73" rx="2.49" ry="2.48"/><ellipse class="cls-1" cx="68.35" cy="2.73" rx="2.49" ry="2.48"/><ellipse class="cls-1" cx="76.55" cy="2.73" rx="2.49" ry="2.48"/><ellipse class="cls-1" cx="84.75" cy="2.73" rx="2.49" ry="2.48"/><ellipse class="cls-1" cx="92.95" cy="2.73" rx="2.49" ry="2.48"/><ellipse class="cls-1" cx="101.15" cy="2.73" rx="2.49" ry="2.48"/><ellipse class="cls-1" cx="109.35" cy="2.73" rx="2.49" ry="2.48"/><ellipse class="cls-1" cx="117.55" cy="2.73" rx="2.49" ry="2.48"/><ellipse class="cls-1" cx="125.75" cy="2.73" rx="2.49" ry="2.48"/><ellipse class="cls-1" cx="133.95" cy="2.73" rx="2.49" ry="2.48"/><ellipse class="cls-1" cx="142.15" cy="2.73" rx="2.49" ry="2.48"/><ellipse class="cls-1" cx="150.36" cy="2.73" rx="2.49" ry="2.48"/><ellipse class="cls-1" cx="158.56" cy="2.73" rx="2.49" ry="2.48"/><ellipse class="cls-1" cx="166.76" cy="2.73" rx="2.49" ry="2.48"/><ellipse class="cls-1" cx="174.96" cy="2.73" rx="2.49" ry="2.48"/><ellipse class="cls-1" cx="183.16" cy="2.73" rx="2.49" ry="2.48"/><ellipse class="cls-1" cx="191.36" cy="2.73" rx="2.49" ry="2.48"/><ellipse class="cls-1" cx="199.56" cy="2.73" rx="2.49" ry="2.48"/><ellipse class="cls-1" cx="207.76" cy="2.73" rx="2.49" ry="2.48"/><ellipse class="cls-1" cx="215.96" cy="2.73" rx="2.49" ry="2.48"/><ellipse class="cls-1" cx="224.16" cy="2.73" rx="2.49" ry="2.48"/><ellipse class="cls-1" cx="232.37" cy="2.73" rx="2.49" ry="2.48"/><ellipse class="cls-1" cx="240.57" cy="2.73" rx="2.49" ry="2.48"/><ellipse class="cls-1" cx="248.77" cy="2.73" rx="2.49" ry="2.48"/><ellipse class="cls-1" cx="256.97" cy="2.73" rx="2.49" ry="2.48"/><ellipse class="cls-1" cx="265.17" cy="2.73" rx="2.49" ry="2.48"/><ellipse class="cls-1" cx="273.37" cy="2.73" rx="2.49" ry="2.48"/><ellipse class="cls-1" cx="281.57" cy="2.73" rx="2.49" ry="2.48"/><ellipse class="cls-1" cx="289.77" cy="2.73" rx="2.49" ry="2.48"/><ellipse class="cls-1" cx="297.97" cy="2.73" rx="2.49" ry="2.48"/><ellipse class="cls-1" cx="306.17" cy="2.73" rx="2.49" ry="2.48"/><ellipse class="cls-1" cx="314.38" cy="2.73" rx="2.49" ry="2.48"/><ellipse class="cls-1" cx="322.58" cy="2.73" rx="2.49" ry="2.48"/><ellipse class="cls-1" cx="330.78" cy="2.73" rx="2.49" ry="2.48"/><ellipse class="cls-1" cx="338.98" cy="2.73" rx="2.49" ry="2.48"/><ellipse class="cls-1" cx="347.18" cy="2.73" rx="2.49" ry="2.48"/><ellipse class="cls-1" cx="355.38" cy="2.73" rx="2.49" ry="2.48"/></svg>
