<svg id="Layer_1" data-name="Layer 1" xmlns="http://www.w3.org/2000/svg" viewBox="0 0 40.83 40.83"><defs><style>.cls-1{fill:#5496ca;}.cls-2{fill:#fff;}</style></defs><title>icon-twitter</title><circle class="cls-1" cx="21.22" cy="21.66" r="20.41" transform="translate(-7.6 32.02) rotate(-68.08)"/><path class="cls-2" d="M32.95,17.29a8.76,8.76,0,0,1-2.5.69,4.33,4.33,0,0,0,1.92-2.4,8.77,8.77,0,0,1-2.76,1,4.35,4.35,0,0,0-7.52,3,4.16,4.16,0,0,0,.11,1,12.32,12.32,0,0,1-9-4.54,4.29,4.29,0,0,0-.59,2.19,4.34,4.34,0,0,0,1.93,3.61,4.28,4.28,0,0,1-2-.54v.06a4.35,4.35,0,0,0,3.48,4.26,4.39,4.39,0,0,1-1.14.15,4,4,0,0,1-.82-.08,4.36,4.36,0,0,0,4.06,3,8.73,8.73,0,0,1-5.4,1.87,8,8,0,0,1-1-.07,12.35,12.35,0,0,0,19-10.41v-.56A9,9,0,0,0,32.95,17.29Z" transform="translate(-0.81 -1.25)"/></svg>