<svg id="Layer_1" data-name="Layer 1" xmlns="http://www.w3.org/2000/svg" xmlns:xlink="http://www.w3.org/1999/xlink" viewBox="0 0 40.83 40.83"><defs><style>.cls-1{fill:url(#무제_그라디언트_3);}.cls-2{fill:#fff;}</style><linearGradient id="무제_그라디언트_3" x1="-1229.72" y1="928.32" x2="-1229.72" y2="887.51" gradientTransform="translate(929.86 1251.38) rotate(90)" gradientUnits="userSpaceOnUse"><stop offset="0" stop-color="#c93"/><stop offset="0.3" stop-color="#bc4c4b"/><stop offset="0.6" stop-color="#b51e6e"/><stop offset="1" stop-color="#5a3b92"/></linearGradient></defs><title>icon-instagram</title><circle class="cls-1" cx="21.94" cy="21.66" r="20.41" transform="translate(-7.87 32.68) rotate(-68.08)"/><path class="cls-2" d="M27,9.17H16.89a7.45,7.45,0,0,0-7.44,7.44V26.7a7.45,7.45,0,0,0,7.44,7.44H27a7.45,7.45,0,0,0,7.44-7.44V16.61A7.45,7.45,0,0,0,27,9.17ZM31.91,26.7A4.93,4.93,0,0,1,27,31.63H16.89A4.93,4.93,0,0,1,12,26.7V16.61a4.93,4.93,0,0,1,4.93-4.93H27a4.93,4.93,0,0,1,4.93,4.93V26.7Z" transform="translate(-1.53 -1.25)"/><path class="cls-2" d="M21.94,15.2a6.46,6.46,0,1,0,6.46,6.46A6.47,6.47,0,0,0,21.94,15.2Zm0,10.4a3.95,3.95,0,1,1,3.95-3.95A3.95,3.95,0,0,1,21.94,25.6Z" transform="translate(-1.53 -1.25)"/><circle class="cls-2" cx="26.88" cy="14" r="1.55"/></svg>