<svg id="Layer_1" data-name="Layer 1" xmlns="http://www.w3.org/2000/svg" viewBox="0 0 18.06 22.2"><defs><style>.cls-1{fill:#333;}.cls-2{fill:none;}.cls-2,.cls-3{stroke:#333;stroke-width:2px;}.cls-3{fill:#999;}</style></defs><title>icon-myPoetry</title><path class="cls-1" d="M18.58,7.92a2.74,2.74,0,0,1,.2,1.32A6,6,0,0,1,17.7,12c-.22.33-.48.64-.72,1a.12.12,0,0,1-.13.05H16.6c.1-.14.18-.27.26-.4a9.2,9.2,0,0,0,.87-1.51,3.57,3.57,0,0,0,.37-1.61,3.74,3.74,0,0,0-2.27-3.16,6.27,6.27,0,0,0-2-.67l-.45,0v.11c0,2.83,0,5.66,0,8.49a1.74,1.74,0,0,1-.63,1.3,5,5,0,0,1-1.78,1,6.06,6.06,0,0,1-2,.33,3.26,3.26,0,0,1-1.44-.29c-.68-.33-.94-.84-.74-1.39A2.45,2.45,0,0,1,7.77,14a6.18,6.18,0,0,1,2.12-.92A5.42,5.42,0,0,1,11.28,13a4.44,4.44,0,0,1,1.11.15l.43.16V1.47h.55l.06.34a3.62,3.62,0,0,0,.71,1.79,5.64,5.64,0,0,0,1,.91L17,5.92A5,5,0,0,1,18.58,7.92Z" transform="translate(-1.73 -0.47)"/><path class="cls-2" d="M13.37,5.57v.11c0,2.83,0,5.66,0,8.49a1.74,1.74,0,0,1-.63,1.3,5,5,0,0,1-1.78,1,6.06,6.06,0,0,1-2,.33,3.26,3.26,0,0,1-1.44-.29c-.68-.33-.94-.84-.74-1.39A2.45,2.45,0,0,1,7.77,14a6.18,6.18,0,0,1,2.12-.92A5.42,5.42,0,0,1,11.28,13a4.44,4.44,0,0,1,1.11.15l.43.16V1.47h.55l.06.34a3.62,3.62,0,0,0,.71,1.79,5.64,5.64,0,0,0,1,.91L17,5.92a5,5,0,0,1,1.61,2,2.74,2.74,0,0,1,.2,1.32A6,6,0,0,1,17.7,12c-.22.33-.48.64-.72,1a.12.12,0,0,1-.13.05H16.6c.1-.14.18-.27.26-.4a9.2,9.2,0,0,0,.87-1.51,3.57,3.57,0,0,0,.37-1.61,3.74,3.74,0,0,0-2.27-3.16,6.27,6.27,0,0,0-2-.67Z" transform="translate(-1.73 -0.47)"/><circle class="cls-3" cx="6.54" cy="15.66" r="5.54"/></svg>