<svg id="Layer_1" data-name="Layer 1" xmlns="http://www.w3.org/2000/svg" viewBox="0 0 22.83 22.88"><defs><style>.cls-1{fill:none;stroke:#fff;stroke-width:2px;}.cls-2{fill:#fff;}</style></defs><title>icon-like-w</title><ellipse class="cls-1" cx="11.42" cy="11.44" rx="10.42" ry="10.44"/><path class="cls-2" d="M12,10.16a9.12,9.12,0,0,1,.84-1,2.93,2.93,0,0,1,4.57.8,3.6,3.6,0,0,1-.06,3.72,7.31,7.31,0,0,1-1.43,1.75c-.24.24-.5.48-.76.72l.51.55-2.19.54.62-2.16.55.55.07,0a12,12,0,0,0,1.77-1.87,3.34,3.34,0,0,0,.69-2.11,2.6,2.6,0,0,0-1.61-2.38A2.17,2.17,0,0,0,13,10a6.89,6.89,0,0,0-.61,1.1c-.09.17-.16.33-.38.33s-.3-.15-.36-.33a3.28,3.28,0,0,0-1.16-1.63A2.22,2.22,0,0,0,7.45,10a2.88,2.88,0,0,0-.28,3,4.27,4.27,0,0,0,1,1.4c.83.8,1.7,1.57,2.55,2.35L11,17l.54-.58.67,2.17L10,18.09l.52-.56c-.65-.57-1.3-1.13-1.93-1.7a9.09,9.09,0,0,1-1.7-1.91,3.72,3.72,0,0,1-.33-3.7,3,3,0,0,1,4.21-1.43A3.48,3.48,0,0,1,11.92,10,1.46,1.46,0,0,0,12,10.16Z" transform="translate(-0.62 -0.96)"/></svg>