<svg id="Layer_1" data-name="Layer 1" xmlns="http://www.w3.org/2000/svg" viewBox="0 0 40.83 40.82"><defs><style>.cls-1{fill:#45568c;}.cls-2{fill:#fff;}</style></defs><title>icon-facebook</title><path class="cls-1" d="M29.28,2.73A20.41,20.41,0,1,0,24.2,41.91l0-10.82H21a.76.76,0,0,1-.76-.76l0-4a.76.76,0,0,1,.76-.76H24.2V21.7c0-4.48,2.74-6.92,6.74-6.92h3.28a.76.76,0,0,1,.76.76v3.37a.76.76,0,0,1-.76.76h-2c-2.18,0-2.6,1-2.6,2.55v3.34h4.78a.76.76,0,0,1,.76.85l-.47,4a.76.76,0,0,1-.76.67H29.63l0,9.37a20.41,20.41,0,0,0-.33-37.73Z" transform="translate(-1.25 -1.25)"/><path class="cls-2" d="M33.91,31.09a.76.76,0,0,0,.76-.67l.47-4a.76.76,0,0,0-.76-.85H29.61V22.22c0-1.52.42-2.55,2.6-2.55h2a.76.76,0,0,0,.76-.76V15.54a.76.76,0,0,0-.76-.76H30.93c-4,0-6.74,2.44-6.74,6.92v3.86H21a.76.76,0,0,0-.76.76l0,4a.76.76,0,0,0,.76.76h3.22l0,10.82a20.47,20.47,0,0,0,5.41-1.46l0-9.37Z" transform="translate(-1.25 -1.25)"/></svg>