<svg id="Layer_1" data-name="Layer 1" xmlns="http://www.w3.org/2000/svg" viewBox="0 0 48.08 16.91"><defs><style>.cls-1{fill:#bbdbf9;}.cls-1,.cls-3,.cls-4,.cls-5{stroke:#333;}.cls-1,.cls-2,.cls-3,.cls-4,.cls-5{stroke-width:0.5px;}.cls-2{fill:#fff;stroke:#000;}.cls-3{fill:#ffd0b8;}.cls-3,.cls-5{stroke-miterlimit:10;}.cls-4{fill:#989898;}.cls-5{fill:#f9f9f9;}</style></defs><title>icon-logo</title><circle class="cls-1" cx="12.82" cy="8.46" r="3.28"/><path class="cls-2" d="M16.61,4.24a10.81,10.81,0,0,0,.25,2.27,9.13,9.13,0,0,0,.76,2.09,6.87,6.87,0,0,0,1.28,1.74,5.83,5.83,0,0,0,1.84,1.21l-1.35,1.93A6.45,6.45,0,0,1,17,11.65a9.18,9.18,0,0,1-1.52-2.71,9.74,9.74,0,0,1-1.57,3,6.92,6.92,0,0,1-2.5,2l-1.43-2a6,6,0,0,0,1.89-1.27,7.08,7.08,0,0,0,1.34-1.82A8.84,8.84,0,0,0,14,6.62a10.58,10.58,0,0,0,.26-2.38V1.82h2.38ZM23.93.64V17H21.55V.64Z" transform="translate(-1.17 -0.38)"/><circle class="cls-3" cx="23.31" cy="8.46" r="3.28"/><path class="cls-2" d="M29.92,7.56A8.1,8.1,0,0,0,31.41,5a9.13,9.13,0,0,0,.52-3.15h-8V3.74h5.41A5.44,5.44,0,0,1,27.54,6.9a10.41,10.41,0,0,1-4.32,2.16l1,1.91a14.35,14.35,0,0,0,3.29-1.4A9.61,9.61,0,0,0,29.92,7.56Z" transform="translate(-1.17 -0.38)"/><polygon class="cls-2" points="26.9 10.98 24.52 10.98 24.52 16.66 35.81 16.66 35.81 14.75 26.9 14.75 26.9 10.98"/><polygon class="cls-2" points="35.23 0.25 32.85 0.25 32.85 10.73 35.23 10.73 35.23 5.16 37.45 5.16 37.45 3.11 35.23 3.11 35.23 0.25"/><circle class="cls-4" cx="33.81" cy="8.46" r="3.28"/><path class="cls-5" d="M3.47,8.83A18,18,0,0,1,4,4.53,15.31,15.31,0,0,1,5.5.63h-2A18.64,18.64,0,0,0,2.09,4a16.44,16.44,0,0,0-.67,4.83,16.48,16.48,0,0,0,.67,4.85A18.55,18.55,0,0,0,3.5,17h2A15.17,15.17,0,0,1,4,13.16,18.12,18.12,0,0,1,3.47,8.83Z" transform="translate(-1.17 -0.38)"/><path class="cls-5" d="M49,8.82A16.33,16.33,0,0,0,48.33,4,18.69,18.69,0,0,0,46.91.63h-2a15.8,15.8,0,0,1,1.52,3.89,18.51,18.51,0,0,1,0,8.63A15.58,15.58,0,0,1,44.91,17h2a18.9,18.9,0,0,0,1.42-3.36A16.48,16.48,0,0,0,49,8.82Z" transform="translate(-1.17 -0.38)"/></svg>