<svg id="Layer_1" data-name="Layer 1" xmlns="http://www.w3.org/2000/svg" viewBox="0 0 21.83 21.88"><defs><style>.cls-1{fill:#ffd0b8;}.cls-1,.cls-2{stroke:#333;}.cls-2{fill:#333;stroke-miterlimit:10;stroke-width:1.1px;}</style></defs><title>icon-like</title><ellipse class="cls-1" cx="10.92" cy="10.94" rx="10.42" ry="10.44"/><path class="cls-2" d="M11.09,9.11a10.07,10.07,0,0,1,.85-1,2.92,2.92,0,0,1,4.56.8,3.62,3.62,0,0,1-.06,3.73A7.72,7.72,0,0,1,15,14.4c-.24.24-.5.47-.76.72l.51.54-2.19.54L13.19,14l.55.55s.06,0,.07,0a11.2,11.2,0,0,0,1.77-1.87,3.34,3.34,0,0,0,.69-2.11A2.61,2.61,0,0,0,14.66,8.2,2.18,2.18,0,0,0,12.1,9a7.35,7.35,0,0,0-.61,1.1c-.08.18-.16.34-.38.33s-.29-.15-.36-.33A3.26,3.26,0,0,0,9.59,8.45,2.22,2.22,0,0,0,6.53,9a2.86,2.86,0,0,0-.28,3,4.17,4.17,0,0,0,1,1.4c.83.8,1.7,1.58,2.55,2.36L10,16l.54-.57.67,2.16L9,17.05l.52-.57c-.65-.57-1.3-1.12-1.93-1.69a9.94,9.94,0,0,1-1.7-1.91,3.75,3.75,0,0,1-.33-3.7A3,3,0,0,1,9.81,7.75,3.37,3.37,0,0,1,11,9Z" transform="translate(-0.21 -0.53)"/></svg>