<svg id="Layer_1" data-name="Layer 1" xmlns="http://www.w3.org/2000/svg" viewBox="0 0 6.92 12.8"><defs><style>.cls-1{fill:#fff;}</style></defs><title>icon-facebook-signup</title><path class="cls-1" d="M9.74,1H8.08A2.91,2.91,0,0,0,5,4.15V5.6H3.34a.26.26,0,0,0-.26.27V8a.26.26,0,0,0,.26.26H5v5.31a.25.25,0,0,0,.26.26H7.45a.26.26,0,0,0,.26-.26V8.23h2A.26.26,0,0,0,9.92,8V5.87a.32.32,0,0,0-.07-.19.27.27,0,0,0-.19-.08H7.71V4.37c0-.59.14-.89.91-.89H9.74A.26.26,0,0,0,10,3.22v-2A.26.26,0,0,0,9.74,1Z" transform="translate(-3.08 -1)"/></svg>